<?xml version="1.0" encoding="UTF-8" standalone="no"?>
<!-- Created with Inkscape (http://www.inkscape.org/) -->

<svg
   width="31.999998"
   height="31.999998"
   viewBox="0 0 8.466666 8.4666661"
   version="1.1"
   id="svg5"
   xml:space="preserve"
   xmlns="http://www.w3.org/2000/svg"
   xmlns:svg="http://www.w3.org/2000/svg"><defs
     id="defs2" /><g
     id="layer1"><g
       id="g14001"
       transform="matrix(1.7252614,0,0,1.5712417,-29.045108,-11.100834)"><g
         id="g35848"
         transform="matrix(0.12499999,0,0,0.125,14.730794,6.1818813)"><path
           id="path20105"
           style="font-variation-settings:normal;opacity:1;fill:#ffcc4d;fill-opacity:1;stroke:none;stroke-width:0.599823;stroke-linecap:round;stroke-linejoin:round;stroke-miterlimit:4;stroke-dasharray:none;stroke-dashoffset:0;stroke-opacity:1;paint-order:normal;stop-color:#000000;stop-opacity:1"
           d="M 30.937436,7.0650072 A 20.089221,22.058452 0 0 0 16.835193,28.114713 20.089221,22.058452 0 0 0 36.924414,50.173164 20.089221,22.058452 0 0 0 56.094944,34.688559 20.089221,22.058452 0 0 1 50.107966,35.697305 20.089221,22.058452 0 0 1 30.018744,13.638854 20.089221,22.058452 0 0 1 30.937436,7.0650072 Z" /><g
           id="g13095"
           transform="matrix(1.2400258,-0.5623048,0.50503854,1.2299592,-27.883949,12.502804)"
           style="stroke-width:1.00065;stroke-dasharray:none"><g
             id="g28392"
             style="stroke-width:1.00065;stroke-dasharray:none"><circle
               style="fill:#ff7892;fill-opacity:1;stroke-width:1.00065;stroke-dasharray:none;stop-color:#000000"
               id="path8318"
               cx="28.927181"
               cy="33.97456"
               r="2.6196721" /><path
               style="fill:#664500;fill-opacity:1;fill-rule:nonzero;stroke:none;stroke-width:1.00065;stroke-linecap:round;stroke-linejoin:round;stroke-dasharray:none;stroke-opacity:1;paint-order:markers fill stroke;stop-color:#000000"
               d="m 31.736549,37.159915 c 0.02908,0.08596 0.0075,0.30321 0.201378,0.544469 0.321504,0.400051 1.290404,1.138371 2.624252,1.577626 1.059029,0.348753 2.171007,0.455707 3.199521,0.296654 0.803539,-0.124263 1.445473,-0.394052 1.901974,-0.695662 0.258159,-0.170566 0.498866,-0.380618 0.708866,-0.622604 0.336428,-0.387669 0.5588,-0.815702 0.682219,-1.231915 0.172044,-0.580189 0.127651,-1.057975 0.06627,-1.239899 -0.03129,-0.09274 -0.09958,-0.130677 -0.119038,-0.154752 -0.02826,0.01573 -0.102635,0.02425 -0.170434,0.08845 -0.132455,0.12542 -0.383066,0.459738 -0.722085,0.7484 -0.248299,0.211417 -0.512604,0.384591 -0.811002,0.543504 -0.186119,0.09912 -0.369094,0.184172 -0.553767,0.267648 -0.32253,0.145791 -0.746166,0.325304 -1.319087,0.451716 -0.744168,0.164195 -1.584331,0.202853 -2.508563,0.07505 -1.122079,-0.155159 -2.166054,-0.577321 -2.614114,-0.676811 -0.286224,-0.06356 -0.47011,0.02699 -0.566386,0.02813 z"
               id="path9215" /><path
               style="fill:#664500;fill-opacity:1;fill-rule:nonzero;stroke:none;stroke-width:1.00065;stroke-linecap:round;stroke-linejoin:round;stroke-dasharray:none;stroke-opacity:1;paint-order:stroke fill markers;stop-color:#000000"
               d="m 28.591796,28.590658 v 0 c 0.117234,0.123054 0.564432,0.48734 1.031393,0.328082 0.01919,-0.0065 0.03915,-0.01417 0.05996,-0.02287 0.250842,-0.104844 0.652435,-0.389903 1.120075,-0.628803 0.231928,-0.114899 0.460989,-0.205896 0.683274,-0.262013 0.224288,-0.05662 0.436958,-0.07669 0.639853,-0.05169 0.242255,0.02986 0.480655,0.125092 0.726971,0.305848 0.358029,0.262736 0.661359,0.683609 0.822104,0.837709 0.172926,0.165777 0.307066,0.05877 0.36899,0.07381 0.03571,-0.05278 0.219181,-0.05765 0.208367,-0.321014 -0.0097,-0.235028 -0.161743,-0.830257 -0.540088,-1.373851 -0.259826,-0.373309 -0.617704,-0.711529 -1.095192,-0.932861 -0.410897,-0.190465 -0.855827,-0.268877 -1.306805,-0.257277 -0.430884,0.01108 -0.845884,0.104056 -1.213025,0.230958 -0.757972,0.255127 -1.284096,0.630404 -1.519058,0.884578 -0.01948,0.02107 -0.03715,0.04157 -0.05305,0.06148 -0.36535,0.457413 -0.03857,1.017894 0.06623,1.127908 z"
               id="path9997" /><path
               style="font-variation-settings:normal;fill:#ffcc4d;fill-opacity:1;stroke:none;stroke-width:1.00065;stroke-linecap:round;stroke-linejoin:round;stroke-miterlimit:4;stroke-dasharray:none;stroke-dashoffset:0;stroke-opacity:1;paint-order:markers fill stroke;stop-color:#000000"
               d="m 36.965435,29.987936 0.522661,-2.381933 1.478508,1.367959 c 0.04647,0.319093 0.119539,0.666946 0.05204,1.003338 -0.142943,0.712323 -0.499927,1.383401 -0.895216,1.674304 0,0 -1.427382,-1.437363 -1.157993,-1.663668 z"
               id="path21491" /><path
               style="fill:#664500;fill-opacity:1;fill-rule:nonzero;stroke:none;stroke-width:1.00065;stroke-linecap:round;stroke-linejoin:round;stroke-dasharray:none;stroke-opacity:1;paint-order:markers stroke fill;stop-color:#000000"
               d="m 35.604285,29.053697 v 0 c 0.05897,0.02899 0.34399,0.171187 0.463141,0.133011 0.03732,-0.01196 0.07382,-0.03977 0.116692,-0.08887 0.08175,-0.09361 0.166594,-0.23734 0.307291,-0.443174 0.110541,-0.161716 0.237841,-0.333439 0.380027,-0.478053 0.06655,-0.06768 0.132905,-0.125851 0.198607,-0.173035 0.06509,-0.04674 0.129155,-0.08245 0.191931,-0.105921 0.03249,-0.02004 0.07554,-0.03472 0.131399,-0.039 0.05891,-0.0045 0.126923,0.003 0.201023,0.02328 0.18057,0.04943 0.360172,0.163434 0.503094,0.287898 0.0014,0.0012 0.0028,0.0024 0.0042,0.0037 0.519565,0.454587 0.744998,0.990062 0.913621,1.294381 0.02398,0.04328 0.04326,0.06113 0.05179,0.07357 8.62e-4,-0.0143 0.0084,-0.04112 0.0045,-0.09043 -0.02264,-0.287096 -0.216307,-0.996801 -0.657717,-1.567006 -0.0013,-0.0017 -0.0027,-0.0034 -0.004,-0.0052 -0.130888,-0.168258 -0.313344,-0.376455 -0.54399,-0.533153 -0.09791,-0.06652 -0.208235,-0.126294 -0.329879,-0.168325 -0.115813,-0.04002 -0.243888,-0.06442 -0.379496,-0.06168 -0.161705,0.0066 -0.317996,0.04216 -0.465319,0.09706 -0.146739,0.05468 -0.283763,0.128154 -0.408781,0.210334 -0.260965,0.171544 -0.479385,0.387419 -0.638599,0.574095 -0.197776,0.231889 -0.321276,0.43647 -0.372187,0.56324 -0.02978,0.07416 -0.03922,0.130225 -0.03268,0.1742 0.02223,0.149552 0.303816,0.288847 0.365325,0.319085 z"
               id="path9997-3" /></g></g></g></g></g></svg>
