<?xml version="1.0" encoding="UTF-8"?><svg id="a" xmlns="http://www.w3.org/2000/svg" xmlns:xlink="http://www.w3.org/1999/xlink" viewBox="0 0 196.94 199.12"><defs><style>.c{fill:url(#b);}</style><radialGradient id="b" cx="97.16" cy="82.92" fx="97.16" fy="82.92" r="99.02" gradientUnits="userSpaceOnUse"><stop offset=".54" stop-color="#fff"/><stop offset=".55" stop-color="#dbd3ea"/><stop offset=".57" stop-color="#a794cc"/><stop offset=".59" stop-color="#7c5fb3"/><stop offset=".61" stop-color="#5b36a0"/><stop offset=".62" stop-color="#421892"/><stop offset=".64" stop-color="#34068a"/><stop offset=".65" stop-color="#2f0087"/><stop offset=".66" stop-color="#360096"/><stop offset=".69" stop-color="#4300b0"/><stop offset=".72" stop-color="#4c00c3"/><stop offset=".75" stop-color="#5200cf"/><stop offset=".79" stop-color="#5400d3"/><stop offset=".82" stop-color="#5100cd"/><stop offset=".85" stop-color="#4900be"/><stop offset=".89" stop-color="#3d00a6"/><stop offset=".93" stop-color="#2b0084"/><stop offset=".95" stop-color="#1f006c"/><stop offset="1" stop-color="#4e006c"/></radialGradient></defs><path class="c" d="M193.26,122.18l-13.02-3.67c3.41-9.4,5.27-19.55,5.27-30.12C185.51,39.57,145.94,0,97.13,0S8.74,39.57,8.74,88.39c0,11.03,2.03,21.6,5.73,31.34l-10.78,3.04h-.01c-2.68,.76-4.25,3.56-3.49,6.24l.39,1.38c.63,2.23,2.66,3.69,4.87,3.69,.45,0,.91-.06,1.37-.19l12.51-3.53c6.17,11.42,14.78,21.32,25.13,29.01l-10.87,14.76c-.65,.88-.99,1.93-.99,3,0,.25,.02,.51,.06,.76,.2,1.34,.91,2.52,2,3.31l1.16,.86c.87,.64,1.91,.98,2.99,.98,.25,0,.51-.02,.77-.05,1.33-.21,2.51-.92,3.31-2.01l11.3-15.33c11.23,6.26,23.97,10.13,37.54,10.95v17.46c0,2.79,2.27,5.06,5.06,5.06h1.43c2.79,0,5.06-2.27,5.06-5.06v-17.51c14.35-.98,27.76-5.39,39.41-12.42l11.76,15.97c.9,1.21,2.28,1.85,3.68,1.85,.94,0,1.89-.29,2.7-.88l1.16-.86c2.02-1.49,2.46-4.35,.97-6.37l-11.56-15.69c9.98-7.78,18.25-17.65,24.14-28.96l14.59,4.11c.45,.13,.91,.19,1.36,.19,2.21,0,4.25-1.46,4.87-3.69l.39-1.38c.76-2.68-.81-5.48-3.49-6.24Zm-96.13,16.29c-37.14,0-67.24-30.11-67.24-67.25S59.99,3.98,97.13,3.98s67.24,30.11,67.24,67.24-30.1,67.25-67.24,67.25Z"/></svg>