<svg xmlns="http://www.w3.org/2000/svg" viewBox="0 0 187 81"><path d="M138.665 55.832v-14.74c0-3.59 2.66-5.4 4.94-5.618.16-.015.334-.022.51-.022.34 0 .715.03 1.092.085l2.86-4.045c-.51-.334-1.505-.638-2.503-.688-.115-.006-.23-.01-.343-.01-2.446 0-4.45.64-5.88 1.958-.642.592-.825.985-.825.985v-2.634h-5.165v24.73h5.315zm15.932.042c2.184 0 4.696-.955 6.397-2.43 1.627-1.498 2.453-3.348 2.453-5.5 0-4.366-3.352-5.673-7.732-6.93l-.376-.1-.06-.016c-1.422-.37-3.57-.93-3.514-2.816-.025-.697.204-1.315.664-1.793.547-.567 1.405-.892 2.355-.892 1.344 0 2.446.696 2.84 1.78h5.085c-.358-3.44-3.973-6.424-7.832-6.424-4.048 0-8.237 2.633-8.237 7.04 0 1.914.783 3.5 2.325 4.714 1.44 1.12 2.554 1.452 4.244 1.956l.29.087c.166.055.344.11.528.167 1.813.557 4.295 1.32 4.295 3.583 0 2.013-1.81 2.93-3.49 2.93-1.778 0-3.2-1.053-3.74-2.76h-5.353c.448 4.367 4.067 7.404 8.857 7.404m-49.54-.03V35.34h3.62l2.944-4.184h-6.563v-6.346h-5.313v6.346h-3.67l-2.9 4.184h6.57v20.5h5.314zm-74.292.03c4.45 0 9.116-.274 12.955-3.553 3.276-2.784 5.312-7.29 5.312-11.76 0-4.595-2.084-9.314-5.312-12.023-3.632-3.09-8.436-3.554-13.085-3.597h-6.157v30.934h6.287zM29.283 29.57h1.005c3.41 0 6.698.155 9.44 2.01 2.818 1.938 4.5 5.294 4.5 8.98 0 3.33-1.49 6.392-4.096 8.402-2.872 2.11-6.02 2.28-9.54 2.28h-1.308V29.57zm33.19 26.193c4.448 0 9.208-2.948 10.947-6.748h-5.428c-1.29 1.294-3.536 2.128-5.742 2.128-3.244 0-6.064-2.05-7.017-5.1l-.233-.74h19.346l.012-.08c.107-.708.22-1.443.22-2.142 0-6.682-5.505-12.327-12.02-12.327-3.38 0-6.528 1.324-8.865 3.728-2.32 2.386-3.595 5.566-3.595 8.956 0 6.797 5.55 12.327 12.374 12.327m.043-20.39c3.365 0 6.205 1.997 7.236 5.09l.252.75h-15.09l.232-.74c.924-2.956 4.024-5.1 7.37-5.1m57.415 20.39c4.45 0 9.21-2.948 10.948-6.748h-5.428c-1.29 1.294-3.536 2.128-5.742 2.128-3.244 0-6.064-2.05-7.017-5.1l-.23-.74h19.345l.012-.08c.107-.71.22-1.444.22-2.143 0-6.683-5.505-12.328-12.02-12.328-3.38 0-6.528 1.324-8.865 3.728-2.32 2.385-3.595 5.565-3.595 8.955 0 6.798 5.55 12.328 12.372 12.328m.044-20.39c3.365 0 6.205 1.997 7.236 5.09l.25.75h-15.09l.233-.74c.924-2.956 4.024-5.1 7.37-5.1m-24.75 20.5L86.915 44.13l-3.18 4.503 5.14 7.24h6.348zm-18.117 0l5.35-7.574.115-.158 3.525-4.988-.004-.004 8.482-12.007h-6.35l-5.305 7.512-5.306-7.512h-6.348l8.48 12.007-8.986 12.723h6.35z" fill="#FFF"></path></svg>