<?xml version="1.0" encoding="UTF-8"?><svg id="Layer_2" xmlns="http://www.w3.org/2000/svg" viewBox="0 0 245.46 54.87"><g id="dexters"><path id="Dexters" d="M201.69,54.79V28.76c0-6.34,4.7-9.54,8.73-9.92,.28-.03,.59-.04,.9-.04,.6,0,1.26,.05,1.93,.15l5.05-7.14c-.9-.59-2.66-1.13-4.42-1.22-.2-.01-.41-.02-.61-.02-4.32,0-7.86,1.13-10.39,3.46-1.13,1.05-1.46,1.74-1.46,1.74v-4.65h-9.12V54.8h9.39Zm28.14,.07c3.86,0,8.29-1.69,11.3-4.29,2.87-2.65,4.33-5.91,4.33-9.71,0-7.71-5.92-10.02-13.66-12.24l-.66-.18-.11-.03c-2.51-.65-6.31-1.64-6.21-4.97-.04-1.23,.36-2.32,1.17-3.17,.97-1,2.48-1.58,4.16-1.58,2.37,0,4.32,1.23,5.02,3.14h8.98c-.63-6.08-7.02-11.35-13.83-11.35-7.15,0-14.55,4.65-14.55,12.43,0,3.38,1.38,6.18,4.11,8.33,2.54,1.98,4.51,2.56,7.5,3.45l.51,.15c.29,.1,.61,.19,.93,.29,3.2,.98,7.59,2.33,7.59,6.33,0,3.56-3.2,5.18-6.16,5.18-3.14,0-5.65-1.86-6.61-4.87h-9.45c.79,7.71,7.18,13.08,15.64,13.08m-87.5-.05V18.6h6.39l5.2-7.39h-11.59V0h-9.38V11.21h-6.48l-5.12,7.39h11.6V54.81h9.38Zm-131.22,.06c7.86,0,16.1-.48,22.88-6.28,5.79-4.92,9.38-12.88,9.38-20.77s-3.68-16.45-9.38-21.24C27.57,1.13,19.09,.31,10.87,.23H0V54.87H11.1ZM8.49,8.41h1.78c6.02,0,11.83,.27,16.67,3.55,4.98,3.42,7.95,9.35,7.95,15.86,0,5.88-2.63,11.29-7.23,14.84-5.07,3.73-10.63,4.03-16.85,4.03h-2.31V8.41h0Zm58.62,46.26c7.86,0,16.26-5.21,19.34-11.92h-9.59c-2.28,2.29-6.25,3.76-10.14,3.76-5.73,0-10.71-3.62-12.39-9.01l-.41-1.31h34.17l.02-.14c.19-1.25,.39-2.55,.39-3.78,0-11.8-9.72-21.77-21.23-21.77-5.97,0-11.53,2.34-15.66,6.58-4.1,4.21-6.35,9.83-6.35,15.82,0,12.01,9.8,21.77,21.86,21.77m.08-36.01c5.94,0,10.96,3.53,12.78,8.99l.45,1.32h-26.65l.41-1.31c1.63-5.22,7.11-9.01,13.02-9.01m101.41,36.01c7.86,0,16.27-5.21,19.34-11.92h-9.59c-2.28,2.29-6.25,3.76-10.14,3.76-5.73,0-10.71-3.62-12.39-9.01l-.41-1.31h34.17l.02-.14c.19-1.25,.39-2.55,.39-3.79,0-11.8-9.72-21.77-21.23-21.77-5.97,0-11.53,2.34-15.66,6.58-4.1,4.21-6.35,9.83-6.35,15.82,0,12.01,9.8,21.77,21.85,21.77m.08-36.01c5.94,0,10.96,3.53,12.78,8.99l.44,1.32h-26.65l.41-1.31c1.63-5.22,7.11-9.01,13.02-9.01m-43.72,36.21l-14.67-20.74-5.62,7.95,9.08,12.79h11.21Zm-32,0l9.45-13.38,.2-.28,6.23-8.81h0s14.98-21.21,14.98-21.21h-11.22l-9.37,13.27-9.37-13.27h-11.21l14.98,21.21-15.87,22.47h11.21Z" style="fill:#fff;"/></g></svg>