<?xml version="1.0" encoding="UTF-8"?><svg id="Layer_2" xmlns="http://www.w3.org/2000/svg" viewBox="0 0 311.22 57.91"><g id="jacksonstops"><g><path d="M305.38,35.45c.78,.73,1.01,4.52-1.04,6.7,5.4-.37,10.8-11.36,2.92-19.15,.93,.09,2.36,.6,2.9,.89-.34-2.35-3.24-6.63-6.92-7.97,.56-.39,1.27-.6,2.23-.71-1.8-2.07-3.91-3.86-6.25-5.29-1.19-3.93-3.78-7.45-6.7-8.56,.65,1.95,.92,4,.8,6.05-.91-1.14-1.95-2.87-4.04-3.96,1.01,2.42,1.14,4.77,1.14,4.77-.69,.19-4.73,.93-6.27,1.56-.89,.37-1.27,1.12-1.51,1.43-.52,.61-.37,.71-3.03,.93l-9.57,.87c-.04,.37,.04,1.92,.91,2.74,.11,1.43,2.4,3.22,4.78,3.22h.52v2.87h-3.52c.22,2.31,1.68,3.16,3.54,3.39v10.98c.89-.38,1.79-.74,2.7-1.06V18.97c1.62,.11,2.79,.6,2.87,2.35,0,.17-.19,.5-.48,.52h-1.3v3.35l1.15-.09c3.39-.26,7.41,1.77,4.13,8.02,1.23-.32,2.42-.79,3.54-1.4,7.22-4.3,6.38-15.04,.84-17.31,5.29,.3,10.83,2.61,10.74,9.14-.6-.59-1.32-1.05-2.1-1.34-.11,7.86-8.21,11.21-11.88,12.56-8.15,3.03-17.13,4.43-16.05,14.74,2.14-3.92,6.12-6.5,10.57-6.85-5.58,3.35-4.56,10.61-2.79,11.5,6.65-13.74,20.94-5.58,27.18-18.75m-21.37-21.63c1.08-2.53,3.54-1.08,4.73,.34-1.64-.26-3.44,.67-4.73-.34" style="fill:#c8102e;"/><path d="M282.05,57.76c1.77-1.19,6.96-3.29,9.49-3.02-.61,.96-1.01,2.04-1.15,3.16,7.8-1.19,14.55-6.06,18.15-13.09-7.86,7.15-21.26,2.46-26.49,12.94m-5.81-46.83v2.9l2.72-.26v-2.64h2.07c.59-2.3,.59-4.7,0-7h-2.05v-1.58c0-.22-.61-.41-1.38-.41s-1.34,.19-1.34,.41v1.58h-2.07c-2.25-.06-5.62-1.14-7.17-3.93-1.89,2.01-2.93,4.67-2.92,7.43-.02,2.76,1.03,5.43,2.92,7.45,1.55-2.79,4.91-3.89,7.17-3.93h2.05" style="fill:#c8102e;"/><path d="M164.42,31.54c0-1.55,1.66-2.18,3.11-2.18,1.28,0,2.51,.47,3.48,1.3l2.01-2.87c-1.67-1.27-3.73-1.94-5.83-1.9-3.35,0-6.65,2.08-6.65,5.68,0,2.27,1.27,3.65,2.85,4.56,2.7,1.58,6.44,1.9,6.44,4.49,0,1.49-1.43,2.53-3.16,2.53-1.9-.05-3.7-.84-5.03-2.2l-2.12,3.02c1.97,1.68,4.65,2.64,7.17,2.64,3.61,0,7.02-2.48,7.02-6.05,0-6.78-9.29-5.77-9.29-9.03m78.22,0c0-1.55,1.64-2.18,3.11-2.18,1.28,0,2.51,.47,3.48,1.3l2.01-2.87c-1.68-1.28-3.74-1.94-5.85-1.9-3.35,0-6.65,2.08-6.65,5.68,0,2.27,1.27,3.65,2.85,4.56,2.7,1.58,6.44,1.9,6.44,4.49,0,1.49-1.41,2.53-3.15,2.53-1.82,0-3.91-.93-5.04-2.2l-2.12,3.02c1.99,1.68,4.65,2.64,7.17,2.64,3.63,0,7.04-2.48,7.04-6.05,0-6.78-9.31-5.77-9.31-9.03m-38.12-5.64c5.61-.19,10.31,4.21,10.49,9.82,0,.18,0,.35,0,.53,0,5.73-4.28,10.37-10.5,10.37-5.61,.19-10.31-4.21-10.5-9.82,0-.18,0-.37,0-.55,0-5.71,4.28-10.35,10.5-10.35m0,17.26c3.7-.04,6.67-3.07,6.63-6.77,0-.04,0-.08,0-.11,.11-3.7-2.79-6.79-6.49-6.9-.04,0-.09,0-.13,0-3.7,.05-6.66,3.09-6.61,6.79,0,.03,0,.06,0,.1,0,3.82,2.81,6.91,6.61,6.91M124.18,26.2h2.74l10.8,13.1v-13.1h3.87v20.1h-2.74l-10.8-13.1v13.1h-3.87V26.2Zm-39.24,5.34c0-1.55,1.64-2.18,3.11-2.18,1.28,0,2.51,.47,3.48,1.3l2.01-2.87c-1.68-1.27-3.74-1.94-5.85-1.9-3.33,0-6.65,2.08-6.65,5.68,0,2.27,1.27,3.65,2.85,4.56,2.72,1.58,6.44,1.9,6.44,4.49,0,1.49-1.41,2.53-3.15,2.53-1.82,0-3.91-.93-5.04-2.2l-2.1,3.02c1.97,1.68,4.65,2.64,7.15,2.64,3.63,0,7.04-2.48,7.04-6.05,0-6.78-9.29-5.77-9.29-9.03m-36.43,11.62c-3.87,0-6.89-2.98-6.89-6.89-.12-3.71,2.79-6.82,6.5-6.94,1.92-.06,3.78,.7,5.1,2.1l2.1-3.02c-1.94-1.65-4.41-2.55-6.96-2.51-6.25,0-10.61,4.58-10.61,10.37-.07,5.65,4.46,10.29,10.12,10.36,.19,0,.38,0,.57,0,3.29,0,6.09-1.34,7.91-3.24l-2.05-2.92c-1.47,1.66-3.56,2.64-5.77,2.7m-26.54-4.34l2.89-6.79,2.9,6.79h-5.79Zm9.01,7.5h4.17l-8.92-20.12h-2.74l-8.77,20.1h4.04l1.73-4.04h8.75l1.73,4.04v.02Zm37.56-10.35l8.95-9.77h-5.01l-7.84,8.73v-8.75h-3.89v20.14h3.89v-9.05l8.19,9.05h5.08l-9.38-10.35Zm87.69-1.28h-9.1v3.16h6.89l2.22-3.16Zm36.86-8.49h-16.38v3.44h5.44v16.68h3.87V29.64h4.65l2.42-3.44Zm34.44,9.18h-3.5v-5.73h3.5c1.32,0,3.09,1.04,3.11,2.87-.02,1.82-1.79,2.87-3.11,2.87m.19-9.18h-7.58v20.1h3.89v-7.5h3.69c2.55,0,6.72-1.68,6.81-6.31-.09-4.62-4.26-6.33-6.81-6.33m-119.21-.26c5.61-.19,10.31,4.21,10.49,9.82,0,.18,0,.35,0,.53,0,5.73-4.28,10.37-10.5,10.37-5.61,.19-10.31-4.21-10.5-9.82,0-.18,0-.37,0-.55,0-5.71,4.28-10.35,10.5-10.35m0,17.26c3.69-.04,6.65-3.06,6.61-6.75,0-.04,0-.09,0-.13,.11-3.7-2.79-6.79-6.49-6.9-.04,0-.08,0-.12,0-3.7,.04-6.67,3.07-6.63,6.77,0,.04,0,.08,0,.11-.11,3.7,2.79,6.79,6.49,6.9,.04,0,.09,0,.13,0M4.84,26.2l-2.42,3.44H6.52v14.61c0,2.22-.45,4.1-2.48,4.1-.74,0-1.46-.28-2.01-.78l-2.03,2.87c.93,.87,2.85,1.25,4.23,1.25,4.28,0,6.14-2.94,6.14-6.94V26.2H4.84Z" style="fill:#f4f3f0;"/></g></g></svg>