<?xml version="1.0" encoding="UTF-8"?>
<!-- Generator: Adobe Illustrator 15.1.0, SVG Export Plug-In . SVG Version: 6.00 Build 0)  -->
<!DOCTYPE svg PUBLIC "-//W3C//DTD SVG 1.1//EN" "http://www.w3.org/Graphics/SVG/1.1/DTD/svg11.dtd">
<svg version="1.1" id="Layer_1" xmlns="http://www.w3.org/2000/svg" xmlns:xlink="http://www.w3.org/1999/xlink" x="0px" y="0px" width="197.422px" height="32px" viewBox="0 0 197.422 32" enable-background="new 0 0 197.422 32" xml:space="preserve">
<g enable-background="new    ">
	<path fill="#D02029" d="M0,1.061h2.61l7.951,18.535l8.081-18.535h2.608L10.814,25.052h-0.522L0,1.061z"/>
	<path fill="#D02029" d="M25.695,0c0.52,0,0.964,0.186,1.332,0.556c0.368,0.369,0.553,0.814,0.553,1.337   c0,0.51-0.185,0.951-0.553,1.32c-0.368,0.371-0.812,0.556-1.332,0.556c-0.509,0-0.947-0.185-1.315-0.556   c-0.367-0.369-0.551-0.809-0.551-1.32c0-0.522,0.184-0.968,0.551-1.337C24.748,0.187,25.186,0,25.695,0z M24.562,7.308h2.283   v17.744h-2.283V7.308z"/>
	<path fill="#D02029" d="M40.512,9.249l-1.468,1.516c-1.221-1.184-2.415-1.777-3.581-1.777c-0.742,0-1.377,0.245-1.905,0.734   c-0.529,0.489-0.793,1.061-0.793,1.712c0,0.576,0.218,1.126,0.654,1.648c0.436,0.532,1.351,1.157,2.747,1.875   c1.699,0.88,2.854,1.729,3.465,2.545c0.599,0.825,0.899,1.755,0.899,2.788c0,1.458-0.512,2.689-1.535,3.702   c-1.024,1.012-2.303,1.517-3.838,1.517c-1.023,0-2.001-0.223-2.931-0.668c-0.931-0.446-1.702-1.062-2.312-1.844l1.435-1.631   c1.166,1.314,2.403,1.973,3.711,1.973c0.916,0,1.695-0.294,2.338-0.881c0.643-0.585,0.964-1.277,0.964-2.07   c0-0.652-0.213-1.234-0.638-1.745c-0.425-0.5-1.384-1.131-2.876-1.893c-1.602-0.826-2.692-1.642-3.269-2.446   s-0.866-1.723-0.866-2.756c0-1.349,0.46-2.468,1.38-3.36c0.92-0.892,2.082-1.337,3.488-1.337   C37.212,6.851,38.857,7.649,40.512,9.249z"/>
	<path fill="#D02029" d="M44.264,7.308h2.283v8.285c0,2.023,0.109,3.413,0.327,4.174c0.327,1.089,0.95,1.947,1.871,2.577   c0.919,0.631,2.017,0.946,3.291,0.946c1.275,0,2.355-0.308,3.242-0.922c0.888-0.613,1.5-1.422,1.838-2.422   c0.229-0.685,0.343-2.136,0.343-4.354V7.308h2.332v8.709c0,2.447-0.285,4.29-0.856,5.528c-0.571,1.24-1.43,2.211-2.577,2.912   c-1.147,0.701-2.585,1.052-4.314,1.052s-3.172-0.351-4.331-1.052c-1.157-0.701-2.022-1.681-2.593-2.936   c-0.571-1.256-0.856-3.146-0.856-5.667L44.264,7.308L44.264,7.308z"/>
	<path fill="#D02029" d="M82.541,7.308v17.744H80.29v-3.05c-0.957,1.164-2.031,2.038-3.222,2.625   c-1.19,0.588-2.492,0.881-3.906,0.881c-2.512,0-4.656-0.91-6.434-2.731s-2.667-4.036-2.667-6.646c0-2.555,0.897-4.74,2.691-6.557   c1.793-1.815,3.952-2.724,6.474-2.724c1.458,0,2.776,0.311,3.955,0.931c1.18,0.62,2.216,1.55,3.107,2.788V7.308H82.541z    M73.417,9.053c-1.271,0-2.444,0.313-3.519,0.938s-1.93,1.502-2.566,2.632c-0.635,1.128-0.953,2.322-0.953,3.582   c0,1.25,0.32,2.443,0.96,3.584c0.641,1.141,1.501,2.027,2.582,2.664c1.08,0.636,2.24,0.952,3.478,0.952   c1.25,0,2.433-0.314,3.552-0.945c1.119-0.63,1.979-1.481,2.582-2.557s0.904-2.285,0.904-3.633c0-2.053-0.676-3.769-2.028-5.147   C77.057,9.743,75.393,9.053,73.417,9.053z"/>
	<path fill="#D02029" d="M87.336,0.457h2.283v24.595h-2.283V0.457z"/>
</g>
<g enable-background="new    ">
	<path fill="#333333" d="M92.261,20.583L94.3,19.36c1.435,2.642,3.093,3.962,4.974,3.962c0.805,0,1.559-0.187,2.267-0.562   c0.706-0.376,1.244-0.877,1.613-1.508c0.37-0.631,0.555-1.301,0.555-2.007c0-0.806-0.271-1.593-0.815-2.364   c-0.75-1.065-2.12-2.35-4.11-3.85c-2.001-1.511-3.245-2.604-3.735-3.277c-0.848-1.132-1.272-2.354-1.272-3.67   c0-1.044,0.25-1.995,0.75-2.854c0.499-0.858,1.204-1.535,2.111-2.03c0.907-0.494,1.894-0.741,2.96-0.741   c1.13,0,2.188,0.28,3.172,0.84c0.984,0.561,2.025,1.592,3.124,3.092l-1.957,1.483c-0.903-1.195-1.672-1.984-2.309-2.364   c-0.635-0.38-1.328-0.57-2.078-0.57c-0.969,0-1.759,0.292-2.374,0.879c-0.614,0.588-0.921,1.311-0.921,2.169   c0,0.522,0.108,1.028,0.326,1.519c0.218,0.487,0.615,1.021,1.191,1.597c0.315,0.306,1.349,1.104,3.099,2.397   c2.076,1.532,3.5,2.896,4.273,4.094c0.772,1.196,1.158,2.397,1.158,3.604c0,1.739-0.66,3.25-1.981,4.533   c-1.321,1.284-2.927,1.926-4.819,1.926c-1.458,0-2.779-0.39-3.964-1.167S93.261,22.409,92.261,20.583z"/>
	<path fill="#333333" d="M112.991,0.718h2.282v6.589h3.62v1.975h-3.62v15.77h-2.282V9.281h-3.116V7.308h3.116V0.718z"/>
	<path fill="#333333" d="M139.998,7.308v17.744h-2.25v-3.05c-0.956,1.164-2.03,2.038-3.222,2.625   c-1.19,0.588-2.493,0.881-3.905,0.881c-2.513,0-4.657-0.91-6.435-2.731c-1.778-1.821-2.667-4.036-2.667-6.646   c0-2.555,0.896-4.74,2.691-6.557c1.793-1.815,3.952-2.724,6.475-2.724c1.456,0,2.774,0.311,3.954,0.931s2.216,1.55,3.107,2.788   V7.308H139.998z M130.873,9.053c-1.27,0-2.443,0.313-3.52,0.938c-1.074,0.624-1.93,1.502-2.566,2.632   c-0.635,1.128-0.952,2.322-0.952,3.582c0,1.25,0.319,2.443,0.96,3.584c0.642,1.141,1.502,2.027,2.583,2.664   c1.08,0.636,2.24,0.952,3.478,0.952c1.249,0,2.434-0.314,3.552-0.945c1.119-0.63,1.979-1.481,2.583-2.557   c0.602-1.075,0.904-2.285,0.904-3.633c0-2.053-0.677-3.769-2.028-5.147C134.513,9.743,132.849,9.053,130.873,9.053z"/>
	<path fill="#333333" d="M160.434,7.308h2.283v14.141c0,2.489-0.218,4.311-0.652,5.463c-0.599,1.631-1.636,2.887-3.115,3.768   C157.471,31.56,155.694,32,153.617,32c-1.522,0-2.89-0.215-4.102-0.646c-1.211-0.431-2.199-1.009-2.959-1.733   c-0.762-0.726-1.463-1.787-2.104-3.182h2.479c0.675,1.174,1.545,2.045,2.612,2.61c1.066,0.564,2.39,0.848,3.968,0.848   c1.557,0,2.872-0.291,3.943-0.87c1.072-0.58,1.837-1.309,2.295-2.186c0.455-0.878,0.686-2.295,0.686-4.253v-0.914   c-0.858,1.087-1.91,1.923-3.151,2.503c-1.24,0.582-2.557,0.873-3.95,0.873c-1.633,0-3.168-0.405-4.604-1.215   s-2.547-1.9-3.331-3.271c-0.783-1.37-1.174-2.876-1.174-4.518s0.407-3.172,1.223-4.591c0.817-1.419,1.945-2.542,3.388-3.368   s2.965-1.239,4.563-1.239c1.327,0,2.566,0.274,3.714,0.822c1.147,0.55,2.256,1.455,3.323,2.717V7.308z M153.698,9.053   c-1.294,0-2.495,0.313-3.604,0.938c-1.108,0.626-1.979,1.49-2.609,2.594c-0.631,1.104-0.946,2.296-0.946,3.579   c0,1.947,0.653,3.556,1.957,4.828c1.304,1.271,2.996,1.907,5.072,1.907c2.1,0,3.787-0.631,5.064-1.892   c1.277-1.262,1.917-2.92,1.917-4.976c0-1.337-0.294-2.528-0.88-3.579c-0.589-1.049-1.419-1.879-2.495-2.487   C156.095,9.356,154.937,9.053,153.698,9.053z"/>
	<path fill="#333333" d="M182.548,19.164l1.925,1.011c-0.632,1.239-1.361,2.24-2.188,3.001c-0.827,0.762-1.758,1.34-2.791,1.737   c-1.035,0.396-2.204,0.595-3.511,0.595c-2.894,0-5.158-0.948-6.791-2.846c-1.631-1.897-2.447-4.042-2.447-6.435   c0-2.25,0.69-4.257,2.072-6.019c1.751-2.238,4.098-3.358,7.036-3.358c3.025,0,5.441,1.146,7.248,3.441   c1.283,1.62,1.938,3.643,1.959,6.067h-15.968c0.044,2.061,0.703,3.75,1.976,5.068c1.272,1.317,2.847,1.977,4.719,1.977   c0.904,0,1.783-0.156,2.638-0.471c0.854-0.313,1.581-0.732,2.18-1.251C181.205,21.162,181.852,20.322,182.548,19.164z    M182.548,14.386c-0.305-1.219-0.748-2.191-1.332-2.92c-0.581-0.729-1.353-1.314-2.31-1.761c-0.959-0.445-1.965-0.669-3.021-0.669   c-1.743,0-3.239,0.56-4.491,1.68c-0.914,0.815-1.605,2.039-2.073,3.67H182.548z"/>
	<path fill="#333333" d="M188.453,7.308h2.332v2.594c0.696-1.023,1.43-1.787,2.202-2.292c0.771-0.506,1.575-0.759,2.413-0.759   c0.632,0,1.305,0.201,2.022,0.604l-1.19,1.926c-0.478-0.207-0.88-0.311-1.206-0.311c-0.763,0-1.496,0.313-2.201,0.938   c-0.707,0.625-1.245,1.597-1.615,2.912c-0.282,1.012-0.425,3.056-0.425,6.132v6.003h-2.331L188.453,7.308L188.453,7.308z"/>
</g>
</svg>