<?xml version="1.0" encoding="UTF-8"?><svg xmlns="http://www.w3.org/2000/svg" xmlns:xlink="http://www.w3.org/1999/xlink" viewBox="0 0 200 200"><defs><clipPath id="clippath"><rect x="74.98" y="65.03" width="51.82" height="42.07" style="fill:none;"/></clipPath></defs><g id="photo_manipulation"><g><polygon points="136.55 116.5 139.72 122.28 145.5 125.45 139.72 128.61 136.55 134.4 133.39 128.61 127.6 125.45 133.39 122.28 136.55 116.5" style="fill:none; stroke:#c3c3c3; stroke-miterlimit:10; stroke-width:3px;"/><polygon points="142.88 119.12 141.03 125.45 142.88 131.78 136.55 129.92 130.22 131.78 132.08 125.45 130.22 119.12 136.55 120.97 142.88 119.12" style="fill:none; stroke:#c3c3c3; stroke-miterlimit:10; stroke-width:3px;"/><polygon points="59.59 81.5 61.56 85.11 65.17 87.08 61.56 89.06 59.59 92.67 57.61 89.06 54 87.08 57.61 85.11 59.59 81.5" style="fill:none; stroke:#c3c3c3; stroke-miterlimit:10; stroke-width:3px;"/><polygon points="63.53 83.14 62.38 87.08 63.53 91.03 59.59 89.88 55.64 91.03 56.79 87.08 55.64 83.14 59.59 84.29 63.53 83.14" style="fill:none; stroke:#c3c3c3; stroke-miterlimit:10; stroke-width:3px;"/><rect x="108.13" y="28.98" width="17.87" height="17.87" style="fill:none; stroke:#c3c3c3; stroke-miterlimit:10; stroke-width:4px;"/><rect x="108.02" y="28.24" width="17.87" height="17.87" transform="translate(60.54 -71.81) rotate(45)" style="fill:none; stroke:#c3c3c3; stroke-miterlimit:10; stroke-width:4px;"/><rect x="99.07" y="123.97" width="6.46" height="6.46" style="fill:none; stroke:#c3c3c3; stroke-miterlimit:10; stroke-width:2px;"/><rect x="99.03" y="123.7" width="6.46" height="6.46" transform="translate(119.7 -35.13) rotate(45)" style="fill:none; stroke:#c3c3c3; stroke-miterlimit:10; stroke-width:2px;"/><path d="M182,18V182H18V18H182M200,0H0V200H200V0h0Z" style="fill:#c3c3c3;"/><polygon points="102.99 84.99 34.13 153.85 46.15 165.87 115.01 97.01 102.99 84.99 102.99 84.99" style="fill:#c3c3c3;"/><path d="M126.99,65.23l7.78,7.78-17.62,17.62-7.78-7.78,17.62-17.62m0-4.24l-21.86,21.86,12.02,12.02,21.86-21.86-12.02-12.02h0Z" style="fill:#c3c3c3;"/></g></g><g id="retouch"><g><path d="M182,18V182H18V18H182M200,0H0V200H200V0h0Z" style="fill:#c3c3c3;"/><line x1="30" y1="45" x2="169" y2="45" style="fill:none; stroke:#c3c3c3; stroke-miterlimit:10; stroke-width:12px;"/><line x1="30" y1="101" x2="169" y2="101" style="fill:none; stroke:#c3c3c3; stroke-miterlimit:10; stroke-width:12px;"/><line x1="30" y1="157" x2="169" y2="157" style="fill:none; stroke:#c3c3c3; stroke-miterlimit:10; stroke-width:12px;"/><rect x="53" y="33" width="7" height="24" rx="3.5" ry="3.5" style="fill:none; stroke:#c3c3c3; stroke-miterlimit:10; stroke-width:12px;"/><rect x="140" y="88" width="7" height="24" rx="3.5" ry="3.5" style="fill:none; stroke:#c3c3c3; stroke-miterlimit:10; stroke-width:12px;"/><rect x="65" y="145" width="7" height="24" rx="3.5" ry="3.5" style="fill:none; stroke:#c3c3c3; stroke-miterlimit:10; stroke-width:12px;"/></g></g><g id="video"><g><path d="M182,18V182H18V18H182M200,0H0V200H200V0h0Z" style="fill:#c3c3c3;"/><path d="M73.18,65c.65,0,1.29,.18,1.95,.56l26.86,15.5,26.86,15.5c1.64,.95,1.98,2.39,1.98,3.43s-.34,2.49-1.98,3.43l-26.86,15.5-26.86,15.5c-.66,.38-1.29,.56-1.95,.56-1.61,0-4-1.27-4-4v-62.02c0-2.73,2.38-4,4-4m0-18c-11.47,0-22,9.17-22,22v62.02c0,12.82,10.52,22,22,22,3.66,0,7.41-.93,10.95-2.98l26.86-15.5,26.86-15.5c14.64-8.45,14.64-29.59,0-38.04l-26.86-15.5-26.86-15.5c-3.54-2.04-7.29-2.98-10.95-2.98h0Z" style="fill:#c3c3c3;"/></g></g><g id="d3"><g><path d="M182,18V182H18V18H182M200,0H0V200H200V0h0Z" style="fill:#c3c3c3;"/><path d="M133.48,134.22l-69.14,8.19c-4.09,.91-10.01,4.98-10.01,10.01v9.55h90.97l-.91-19.1c0-5.02-5.89-8.64-10.92-8.64h0Z" style="fill:#c3c3c3;"/><path d="M126.38,107.71c-.41,0-.83,.03-1.25,.09l-54.05,7.6c-4.98,.7-8.44,5.3-7.74,10.28l2.15,15.32,50.43-7.09c11.28-3.5,19.75-8.9,19.62-17.46l-.13-.9c-.26-1.84-1.05-3.48-2.2-4.77h0c-1.08-1.22-2.47-2.14-4.04-2.63,0,0-.02,0-.03,0-.8-.25-1.64-.39-2.51-.41-.08,0-.16,0-.24,0h0Z" style="fill:#c3c3c3;"/><path d="M117.4,83.04c-.42,0-.85,.03-1.28,.09l-36.04,5.06c-4.98,.7-8.44,5.3-7.74,10.28l2.15,15.32,11.98-1.68c6.95-.98,14.03-2.31,20.25-4.18,11.3-3.4,19.8-8.58,19.73-16.68l-.05-.37c-.63-4.48-4.42-7.73-8.8-7.83-.06,0-.13,0-.19,0h0Z" style="fill:#c3c3c3;"/><path d="M109.74,58.19c-.42,0-.84,.03-1.27,.09l-20.72,2.91c-4.98,.7-8.44,5.3-7.74,10.28l2.15,15.29c5.86-.92,11.68-2.11,16.91-3.68,11.3-3.4,19.8-8.58,19.73-16.68l-.05-.37c-.63-4.48-4.42-7.73-8.8-7.83h0c-.06,0-.13,0-.19,0h0Z" style="fill:#c3c3c3;"/><path d="M105.95,32.75c-.21,0-.42,.01-.64,.04l-14.41,2.03c-2.49,.35-4.22,2.65-3.87,5.14l2.79,19.82,10.5-1.48c9.78-3.06,11.33-10.39,10.71-17.54l-.58-4.09c-.32-2.27-2.27-3.92-4.5-3.92h0Z" style="fill:#c3c3c3;"/><polygon points="159.04 161.96 40.96 161.96 40.96 169.76 159.04 169.76 159.04 161.96 159.04 161.96" style="fill:#c3c3c3;"/></g></g><g id="vstaging"><g><path d="M182,18V182H18V18H182M200,0H0V200H200V0h0Z" style="fill:#c3c3c3;"/><path d="M148.8,30.44c3.28-5.69,11.49-5.69,14.77,0l5.71,9.88,6.67,11.56c2.71,4.7-.26,9.22-5.58,10.89-.55,.17-1.13,.25-1.7,.27l-9.17,.44c-2.2,.11-4.41,.11-6.61,0l-9.09-.43c-.76-.04-1.52-.18-2.23-.44-5.06-1.81-7.78-6.16-5.14-10.73l6.67-11.56,5.71-9.88Z" style="fill:#c3c3c3; stroke:#c3c3c3; stroke-miterlimit:10;"/><rect x="153.13" y="59.76" width="6.11" height="97.5" rx="2.64" ry="2.64" style="fill:#c3c3c3; stroke:#c3c3c3; stroke-miterlimit:10;"/><rect x="147.77" y="154.62" width="16.83" height="8.28" rx="3.58" ry="3.58" style="fill:#c3c3c3; stroke:#c3c3c3; stroke-miterlimit:10;"/><rect x="47.8" y="129.3" width="40.29" height="22.95" rx="11.48" ry="11.48" style="fill:#c3c3c3; stroke:#c3c3c3; stroke-miterlimit:10;"/><rect x="80.33" y="129.3" width="40.29" height="22.95" rx="11.48" ry="11.48" style="fill:#c3c3c3; stroke:#c3c3c3; stroke-miterlimit:10;"/><rect x="50.44" y="104.94" width="65.64" height="23.04" rx="11.48" ry="11.48" style="fill:#c3c3c3; stroke:#c3c3c3; stroke-miterlimit:10;"/><rect x="27.49" y="108.51" width="22.95" height="27.98" rx="11.48" ry="11.48" style="fill:#c3c3c3; stroke:#c3c3c3; stroke-miterlimit:10;"/><rect x="116.08" y="108.51" width="22.95" height="27.98" rx="11.48" ry="11.48" style="fill:#c3c3c3; stroke:#c3c3c3; stroke-miterlimit:10;"/><path d="M58.36,159.68h-.26c-.55-.01-1.01-.42-1.09-.96l-1.17-7.89c-.1-.68,.42-1.28,1.11-1.28h2.49c.68,0,1.2,.6,1.11,1.27l-1.06,7.9c-.08,.56-.56,.98-1.12,.97Z" style="fill:#c3c3c3; stroke:#c3c3c3; stroke-miterlimit:10;"/><path d="M111.53,159.68h-.26c-.55-.01-1.01-.42-1.09-.96l-1.17-7.89c-.1-.68,.42-1.28,1.11-1.28h2.49c.68,0,1.2,.6,1.11,1.27l-1.06,7.9c-.08,.56-.56,.98-1.12,.97Z" style="fill:#c3c3c3; stroke:#c3c3c3; stroke-miterlimit:10;"/></g></g><g id="fine_art"><g><path d="M182,18V182H18V18H182M200,0H0V200H200V0h0Z" style="fill:#c3c3c3;"/><path d="M117.5,99.91c36.67-50.65,55.63-75.54,56.86-74.7,1.23,.84-15.12,27.23-49.05,79.16" style="fill:#c3c3c3;"/><path d="M117.5,99.91c-1.74,.54-3.62,2.12-3.76,4.04-.27,3.65,5.74,7.69,9.2,5.85,1.78-.95,2.74-3.37,2.37-5.43-.6-3.33-4.61-5.45-7.8-4.46Z" style="fill:#c3c3c3;"/><path d="M110.06,102.84c-11.81,.42-23.08,17.21-21.18,29.54,.76,4.96,3.36,7.29,2.23,11.98-1.82,7.55-18.13,5-17.7,5.78,.49,.9,20.15,4.37,33.03-4.4,14.37-9.79,16.5-18.38,17.28-20.61,.98-2.78,3.2-9.09,0-14.77-2.74-4.87-8.57-7.71-13.66-7.53Z" style="fill:#c3c3c3;"/><path d="M33.36,69.37c-8.42,24.8-2.94,53.54,14.85,72.54,9.53,10.32,22.4,17.26,36.36,18.09,.94,0,3.53,.03,4.51,.04,4.98-.23,9.99-1.12,14.78-2.55,11.54-3.68,21.85-10.62,30.05-19.49,5.48-5.92,10-12.71,13.56-20.03,0,0,10.61,4.62,10.61,4.62-11.81,30.75-46.6,53.38-79.7,45.58-22.78-5.4-39.98-24.98-46.8-46.64-5.54-16.97-4.64-35.65,1.78-52.14h0Z" style="fill:#c3c3c3;"/></g></g><g id="photography"><g><path d="M144.18,74.52H68.55c0,1.46-.59,2.78-1.55,3.74-.96,.96-2.28,1.55-3.73,1.55h-4.41c-2.87,0-5.2-2.29-5.27-5.15-6.23,.9-11.02,6.26-11.02,12.74v42.06c0,7.11,5.77,12.88,12.88,12.88h88.73c7.12,0,12.88-5.77,12.88-12.88v-42.06c0-7.11-5.76-12.88-12.88-12.88Zm-19.7,51.96c-9.12,0-16.52-7.39-16.52-16.51s7.4-16.51,16.52-16.51,16.51,7.39,16.51,16.51-7.39,16.51-16.51,16.51Z" style="fill:#c3c3c3;"/><rect x="54.27" y="68.57" width="13.5" height="10.57" rx="5.28" ry="5.28" style="fill:#c3c3c3;"/><path d="M124.48,95.66c-7.91,0-14.31,6.41-14.31,14.31s6.4,14.31,14.31,14.31,14.3-6.41,14.3-14.31-6.4-14.31-14.3-14.31Zm3.3,10.35c-1.28,0-2.31-1.04-2.31-2.31s1.03-2.32,2.31-2.32,2.31,1.04,2.31,2.32-1.03,2.31-2.31,2.31Z" style="fill:#c3c3c3;"/><path d="M81.15,56.12v17.19c0,.3,.24,.54,.54,.54h36.26c.3,0,.54-.24,.54-.54v-17.19c0-.3-.24-.54-.54-.54h-36.26c-.3,0-.54,.24-.54,.54Zm31.7,12.76c0,1.22-.99,2.22-2.22,2.22h-21.64c-1.22,0-2.22-.99-2.22-2.22v-8.33c0-1.22,.99-2.22,2.22-2.22h21.64c1.22,0,2.22,.99,2.22,2.22v8.33Z" style="fill:#c3c3c3;"/><path d="M182,18V182H18V18H182M200,0H0V200H200V0h0Z" style="fill:#c3c3c3;"/></g></g><g id="illustration"><g><path d="M182,18V182H18V18H182M200,0H0V200H200V0h0Z" style="fill:#c3c3c3;"/><path d="M148.44,190.33H51.56V108.46c8.28,0,15-6.72,15-15h66.88c0,8.28,6.72,15,15,15v81.88Z" style="fill:#c3c3c3;"/><circle cx="100" cy="72.98" r="39.39" style="fill:#c3c3c3;"/><path d="M99.07,17.86c.5-.55,1.36-.55,1.86,0l24.33,24.9,6.94,9.52c.73,.81,.16,2.1-.93,2.1h-62.55c-1.09,0-1.66-1.29-.93-2.1l5.12-7.89,26.15-26.52Z" style="fill:#c3c3c3;"/></g></g><g id="brochure"><g><path d="M182,18V182H18V18H182M200,0H0V200H200V0h0Z" style="fill:#c3c3c3;"/><path d="M148.64,54.01v91.98c0,7.78-6.3,14.09-14.09,14.09h-43.4c-1.45,0-2.87-.08-4.28-.24-16.67-1.77-30.25-13.85-34.29-29.73-.35-1.39-.63-2.81-.83-4.25-.26-1.82-.39-3.69-.39-5.58V54.01c0-7.78,6.31-14.09,14.09-14.09h69.1c7.79,0,14.09,6.31,14.09,14.09Z" style="fill:#c3c3c3;"/><path d="M91.33,124.51v26.45c0,2.2-2.02,3.86-4.17,3.4-14.74-3.18-26.42-14.53-30.12-29.06,0-.01,0-.03-.01-.04-.54-2.14,1.13-4.21,3.34-4.21h27.5c1.91,0,3.46,1.55,3.46,3.46Z" style="fill:#fff;"/><g style="clip-path:url(#clippath);"><g><g id="_Grid_Repeat_"><line x1="76.98" y1="67.53" x2="124.19" y2="67.53" style="fill:none; stroke:#fff; stroke-linecap:round; stroke-linejoin:round; stroke-width:4px;"/></g><g id="_Grid_Repeat_-2"><line x1="76.98" y1="79.99" x2="124.19" y2="79.99" style="fill:none; stroke:#fff; stroke-linecap:round; stroke-linejoin:round; stroke-width:4px;"/></g><g id="_Grid_Repeat_-3"><line x1="76.98" y1="92.45" x2="124.19" y2="92.45" style="fill:none; stroke:#fff; stroke-linecap:round; stroke-linejoin:round; stroke-width:4px;"/></g><g id="_Grid_Repeat_-4"><line x1="76.98" y1="104.91" x2="124.19" y2="104.91" style="fill:none; stroke:#fff; stroke-linecap:round; stroke-linejoin:round; stroke-width:4px;"/></g></g></g></g></g></svg>