<svg id="js-logo-full" viewBox="0 0 1672 312" xmlns="http://www.w3.org/2000/svg" fill-rule="evenodd" clip-rule="evenodd" stroke-linejoin="round" stroke-miterlimit="1.4"><path d="M1640.5 204c4.2 3.9 5.4 24.3-5.6 36 29-2 58-61 15.7-102.9 5 .5 12.7 3.2 15.6 4.8-1.8-12.6-17.4-35.6-37.2-42.8 3-2.1 6.8-3.2 12-3.8a143 143 0 0 0-33.6-28.4c-6.4-21.1-20.3-40-36-46a85.9 85.9 0 0 1 4.3 32.5c-4.9-6.1-10.5-15.4-21.7-21.3 5.4 13 6.1 25.6 6.1 25.6-3.7 1-25.4 5-33.7 8.4-4.8 2-6.8 6-8.1 7.7-2.8 3.3-2 3.8-16.3 5l-51.4 4.7c-.2 2 .2 10.3 4.9 14.7.6 7.7 12.9 17.3 25.7 17.3h2.8v15.4h-18.9c1.2 12.4 9 17 19 18.2v59a230 230 0 0 1 14.5-5.7v-86.9c8.7.6 15 3.2 15.4 12.6 0 .9-1 2.7-2.6 2.8h-7v18l6.2-.5c18.2-1.4 39.8 9.5 22.2 43.1a84.4 84.4 0 0 0 19-7.5c38.8-23.1 34.3-80.8 4.5-93 28.4 1.6 58.2 14 57.7 49.1a32.3 32.3 0 0 0-11.3-7.2c-.6 42.2-44.1 60.2-63.8 67.5-43.8 16.3-92 23.8-86.2 79.2a71 71 0 0 1 56.8-36.8c-30 18-24.5 57-15 61.8 35.7-73.8 112.5-30 146-100.7M1525.7 87.7c5.8-13.6 19-5.8 25.4 1.8-8.8-1.4-18.5 3.6-25.4-1.8" fill="#c8102e" fill-rule="nonzero"></path><path d="M1515.2 310.3c9.5-6.4 37.4-17.7 51-16.2a41.3 41.3 0 0 0-6.2 17 132 132 0 0 0 97.5-70.3c-42.2 38.4-114.2 13.2-142.3 69.5M1484 58.7v15.6l14.6-1.4V58.7h11.1a76 76 0 0 0 0-37.6h-11v-8.5c0-1.2-3.3-2.2-7.4-2.2-4 0-7.2 1-7.2 2.2v8.5H1473c-12.1-.3-30.2-6.1-38.5-21.1a57.9 57.9 0 0 0-15.7 39.9 58 58 0 0 0 15.7 40c8.3-15 26.4-20.9 38.5-21.1h11" fill="#c8102e" fill-rule="nonzero"></path><path d="M883.3 138.7c0-8.3 8.9-11.7 16.7-11.7a29 29 0 0 1 18.7 7l10.8-15.4a50.1 50.1 0 0 0-31.3-10.2c-18 0-35.7 11.2-35.7 30.5 0 12.2 6.8 19.6 15.3 24.5 14.5 8.5 34.6 10.2 34.6 24.1 0 8-7.7 13.6-17 13.6a39 39 0 0 1-27-11.8L857 205.5c10.6 9 25 14.2 38.5 14.2 19.4 0 37.7-13.3 37.7-32.5 0-36.4-49.9-31-49.9-48.5m420.2 0c0-8.3 8.8-11.7 16.7-11.7a29 29 0 0 1 18.7 7l10.8-15.4a50.1 50.1 0 0 0-31.4-10.2c-18 0-35.7 11.2-35.7 30.5 0 12.2 6.8 19.6 15.3 24.5 14.5 8.5 34.6 10.2 34.6 24.1 0 8-7.6 13.6-16.9 13.6-9.8 0-21-5-27.1-11.8l-11.4 16.2c10.7 9 25 14.2 38.5 14.2 19.5 0 37.8-13.3 37.8-32.5 0-36.4-50-31-50-48.5m-204.8-30.3A54.6 54.6 0 0 1 1155 164c0 30.8-23 55.7-56.4 55.7a54.6 54.6 0 0 1-56.4-55.7c0-30.7 23-55.6 56.4-55.6m0 92.7a36 36 0 0 0 35.6-37 36 36 0 0 0-35.6-37.1 36 36 0 0 0-35.5 37c0 20.5 15.1 37.1 35.5 37.1M667.1 110h14.7l58 70.4V110h20.8v108h-14.7l-58-70.4V218h-20.8V110zm-210.8 28.7c0-8.3 8.8-11.7 16.7-11.7a29 29 0 0 1 18.7 7l10.8-15.4a50.2 50.2 0 0 0-31.4-10.2c-17.9 0-35.7 11.2-35.7 30.5 0 12.2 6.8 19.6 15.3 24.5 14.6 8.5 34.6 10.2 34.6 24.1 0 8-7.6 13.6-16.9 13.6-9.8 0-21-5-27.1-11.8L430 205.5c10.6 9 25 14.2 38.4 14.2 19.5 0 37.8-13.3 37.8-32.5 0-36.4-49.9-31-49.9-48.5m-195.7 62.4c-20.8 0-37-16-37-37a36.1 36.1 0 0 1 62.3-26l11.3-16.2a56.5 56.5 0 0 0-37.4-13.5c-33.6 0-57 24.6-57 55.7a55 55 0 0 0 57.4 55.6c17.7 0 32.7-7.2 42.5-17.4l-11-15.7a43 43 0 0 1-31 14.5m-142.6-23.3l15.5-36.5 15.6 36.5h-31zm48.4 40.3h22.4L141 110h-14.7L79.2 218h21.7l9.3-21.7h47l9.3 21.7zm201.8-55.6l48.1-52.5h-26.9l-42.1 46.9v-47h-20.9v108.2h20.9v-48.6l44 48.6h27.3l-50.4-55.6zm471.1-6.9h-48.9v17h37l11.9-17zm198-45.6h-88v18.5h29.2v89.6h20.8v-89.6h25l13-18.5zm185 49.3h-18.8v-30.8h18.8c7.1 0 16.6 5.6 16.7 15.4-.1 9.8-9.6 15.4-16.7 15.4m1-49.3h-40.7v108h20.9v-40.3h19.8c13.7 0 36.1-9 36.6-33.9-.5-24.8-22.9-34-36.6-34M583 108.4a54.6 54.6 0 0 1 56.4 55.6c0 30.8-23 55.7-56.4 55.7a54.6 54.6 0 0 1-56.4-55.7c0-30.7 23-55.6 56.4-55.6m0 92.7a35.9 35.9 0 0 0 35.5-37A36 36 0 0 0 583 127a36 36 0 0 0-35.6 37 36 36 0 0 0 35.6 37.1M26 110l-13 18.5h22V207c0 11.9-2.4 22-13.3 22a16 16 0 0 1-10.8-4.2L0 240.2c5 4.7 15.3 6.7 22.7 6.7 23 0 33-15.8 33-37.3V110H26z" fill="#f4f3f0" fill-rule="nonzero"></path></svg>